<svg width="120" height="37" viewBox="0 0 120 37" fill="none" xmlns="http://www.w3.org/2000/svg">
<path d="M108.477 25.728C105.542 25.7499 103.298 24.8682 101.744 23.0828C100.19 21.2863 99.6219 19.1309 100.038 16.6166C100.337 14.8063 101.062 13.1826 102.212 11.7454C103.362 10.297 104.756 8.69063 106.395 6.92614L112.806 0.047843L117.756 3.84475L112.656 9.12284C111.98 9.8087 110.647 10.6166 108.656 11.5467C106.665 12.4767 105.204 14.1562 104.274 16.585L101.495 16.5723C102.589 13.6288 104.181 11.6303 106.272 10.5767C108.373 9.52307 110.557 8.98781 112.822 8.97093C114.987 8.95479 116.689 9.71779 117.929 11.2599C119.168 12.8021 119.584 14.7466 119.178 17.0934C118.75 19.6525 117.543 21.7262 115.558 23.3147C113.572 24.9032 111.211 25.7077 108.477 25.728ZM109.285 19.5612C110.066 19.5553 110.745 19.2992 111.322 18.7926C111.898 18.2749 112.251 17.6473 112.379 16.9097C112.529 16.0715 112.373 15.3918 111.912 14.8707C111.45 14.3384 110.818 14.0753 110.014 14.0813C109.211 14.0873 108.515 14.3436 107.927 14.8502C107.351 15.3567 106.998 15.9899 106.87 16.7498C106.742 17.5767 106.909 18.2563 107.371 18.7886C107.843 19.3096 108.481 19.5671 109.285 19.5612Z" fill="#1E40AF"/>
<path d="M86.9028 25.9724C83.7555 25.9958 81.4253 24.819 79.912 22.4418C78.3986 20.0535 77.9622 16.9093 78.6028 13.0094C79.2447 9.27681 80.5786 6.30363 82.6045 4.08982C84.6417 1.87592 87.178 0.757664 90.2136 0.735041C93.3609 0.711585 95.7023 1.88836 97.2379 4.26537C98.7847 6.64229 99.2377 9.77515 98.597 13.6639C97.9441 17.4077 96.588 20.3922 94.5286 22.6175C92.4692 24.8315 89.9272 25.9498 86.9028 25.9724ZM87.5733 19.3545C88.6112 19.3468 89.478 18.8381 90.1736 17.8284C90.8692 16.8076 91.3825 15.3026 91.7137 13.3135C92.0447 11.302 92.0335 9.80652 91.6802 8.82698C91.3269 7.83629 90.6312 7.34481 89.5933 7.35255C88.5666 7.3602 87.7054 7.86886 87.0097 8.87853C86.3141 9.88821 85.8007 11.3876 85.4696 13.3767C85.1385 15.377 85.1441 16.8781 85.4864 17.8801C85.8398 18.8708 86.5354 19.3622 87.5733 19.3545Z" fill="#1E40AF"/>
<path d="M65.9596 25.5093L68.489 9.98782L65.7899 11.7323L63.0278 7.26618L72.226 1.48878L76.9803 1.45335L72.9404 25.4573L65.9596 25.5093Z" fill="#1E40AF"/>
<path d="M50.4736 26.1602C47.5385 26.182 45.2941 25.3003 43.7406 23.515C42.187 21.7185 41.6185 19.5631 42.035 17.0487C42.334 15.2384 43.0585 13.6147 44.2086 12.1775C45.3585 10.7292 46.7528 9.12275 48.3915 7.35827L54.8024 0.479966L59.7527 4.27687L54.6524 9.55496C53.9767 10.2408 52.6434 11.0488 50.6525 11.9788C48.6617 12.9088 47.2009 14.5883 46.2703 17.0172L43.4912 17.0044C44.5853 14.0609 46.1776 12.0624 48.268 11.0088C50.3696 9.95519 52.5532 9.41994 54.8187 9.40305C56.9838 9.38692 58.686 10.1499 59.9252 11.6921C61.1644 13.2342 61.5807 15.1787 61.1741 17.5255C60.7467 20.0846 59.54 22.1584 57.554 23.7469C55.5681 25.3354 53.2079 26.1398 50.4736 26.1602ZM51.2815 19.9933C52.0627 19.9875 52.7416 19.7313 53.3182 19.2247C53.8947 18.707 54.2472 18.0794 54.3756 17.3418C54.5257 16.5036 54.3699 15.824 53.9084 15.3028C53.4469 14.7705 52.8143 14.5074 52.0108 14.5134C51.2072 14.5194 50.5116 14.7757 49.9238 15.2823C49.3472 15.7888 48.9948 16.4221 48.8665 17.182C48.7387 18.0088 48.9056 18.6884 49.3672 19.2207C49.8398 19.7417 50.4779 19.9993 51.2815 19.9933Z" fill="#1E40AF"/>
<path d="M90.5856 36.2241L92.3444 27.5164L94.4607 27.4973L93.7147 31.1425C93.6768 31.341 93.6312 31.5554 93.5778 31.7858C93.5243 32.0122 93.465 32.2505 93.3999 32.5008C93.3387 32.7471 93.2716 33.0014 93.1987 33.2636L93.2462 33.2632L97.1418 27.4732L100.049 27.447L98.29 36.1547L96.1737 36.1738L96.8962 32.5645C96.9378 32.3422 96.9834 32.1158 97.0328 31.8855C97.0822 31.6512 97.1395 31.403 97.2045 31.1408C97.2695 30.8747 97.3422 30.5887 97.4227 30.2827L97.3751 30.2832L93.4926 36.1979L90.5856 36.2241Z" fill="#EF4444"/>
<path d="M86.5564 36.3794C85.8312 36.3859 85.2295 36.2507 84.7514 35.9735C84.2732 35.6925 83.915 35.2994 83.6766 34.7942C83.4382 34.289 83.316 33.6995 83.3099 33.0258C83.3052 32.5066 83.356 31.983 83.4622 31.4549C83.5684 30.9268 83.7363 30.4239 83.9659 29.9462C84.1954 29.4646 84.4908 29.0359 84.852 28.66C85.2133 28.2803 85.6446 27.9811 86.146 27.7626C86.6473 27.5401 87.225 27.4259 87.8789 27.42C88.4575 27.4148 88.9773 27.4795 89.4383 27.614C89.8992 27.7447 90.3349 27.931 90.7453 28.173L89.8818 29.9941C89.5113 29.7794 89.1709 29.62 88.8609 29.5158C88.5507 29.4076 88.2292 29.355 87.8963 29.358C87.6149 29.3605 87.3559 29.4262 87.1193 29.5552C86.8866 29.6841 86.6781 29.8624 86.4939 30.09C86.3136 30.3175 86.1594 30.5805 86.0313 30.8789C85.9071 31.1733 85.8129 31.4932 85.7486 31.8386C85.6883 32.18 85.6597 32.529 85.6629 32.8857C85.6677 33.4128 85.7822 33.8081 86.0065 34.0717C86.2348 34.3312 86.555 34.4591 86.9672 34.4554C87.3199 34.4522 87.6643 34.4055 88.0004 34.3153C88.3364 34.2251 88.7197 34.0869 89.15 33.9007L89.1673 35.8209C88.7449 36.0149 88.3162 36.1555 87.881 36.2426C87.4497 36.3298 87.0082 36.3754 86.5564 36.3794Z" fill="#EF4444"/>
<path d="M75.0582 36.3638L76.8169 27.6561L79.1413 27.6352L78.3159 31.7091L81.0079 27.6184L83.5998 27.595L80.5473 31.9328L81.9124 36.3021L79.3562 36.3251L78.2418 32.0605L77.3826 36.3429L75.0582 36.3638Z" fill="#EF4444"/>
<path d="M65.9148 36.4463L70.2595 27.7153L73.2497 27.6884L74.0591 36.373L71.7941 36.3934L71.72 34.765L69.0568 34.789L68.3284 36.4245L65.9148 36.4463ZM69.8902 32.9266L71.632 32.9109L71.5204 30.415C71.5147 30.2208 71.509 30.0286 71.5033 29.8384C71.4976 29.6482 71.496 29.4679 71.4984 29.2975L71.4628 29.2978C71.405 29.4806 71.3412 29.6595 71.2714 29.8346C71.2056 30.0096 71.1319 30.1886 71.0503 30.3716L69.8902 32.9266Z" fill="#EF4444"/>
<path d="M61.3201 36.4873L62.668 29.7036L60.7836 29.7206L61.1765 27.7967L67.2877 27.7417L66.8829 29.6657L64.9924 29.6827L63.6445 36.4664L61.3201 36.4873Z" fill="#EF4444"/>
<path d="M48.259 36.6049L50.0178 27.8972L52.3422 27.8763L51.7053 31.1043L53.7741 31.0857L54.4109 27.8577L56.7412 27.8367L54.9766 36.5445L52.6522 36.5654L53.3634 33.0157L51.3065 33.0342L50.5834 36.584L48.259 36.6049Z" fill="#EF4444"/>
<path d="M41.4112 36.6666L43.1699 27.9589L48.3299 27.9125L47.9605 29.8004L45.1249 29.8259L44.8578 31.1957L47.4972 31.172L47.0862 33.0603L44.4467 33.0841L44.1226 34.7278L46.9582 34.7023L46.5712 36.6202L41.4112 36.6666Z" fill="#EF4444"/>
<g clip-path="url(#clip0_2014_1820)">
<mask id="mask0_2014_1820" style="mask-type:alpha" maskUnits="userSpaceOnUse" x="0" y="0" width="37" height="37">
<path d="M33.1015 3.62396e-05H3.4243C1.53311 3.62396e-05 0 1.53315 0 3.42433V33.1016C0 34.9928 1.53311 36.5259 3.4243 36.5259H33.1015C34.9927 36.5259 36.5258 34.9928 36.5258 33.1016V3.42433C36.5258 1.53315 34.9927 3.62396e-05 33.1015 3.62396e-05Z" fill="#D9D9D9"/>
</mask>
<g mask="url(#mask0_2014_1820)">
<path d="M0 3.62396e-05H36.5258V36.5259H0V3.62396e-05Z" fill="#1E40AF"/>
<path d="M28.5519 13.1622C28.6113 15.2786 28.5947 20.1178 28.0525 22.5433C27.3748 25.5753 23.0231 27.7511 22.7734 27.8581C22.7702 27.8595 22.7664 27.8608 22.7619 27.8621C22.7551 27.864 22.7469 27.8659 22.7374 27.8678C22.7343 27.8684 22.7311 27.8691 22.7278 27.8697C22.7126 27.8724 22.6947 27.8748 22.6739 27.8774C22.6663 27.8783 22.6584 27.8795 22.6501 27.8804C22.6376 27.8817 22.6243 27.8829 22.6103 27.8842C22.6009 27.8852 22.5912 27.8862 22.5811 27.887C22.5647 27.8884 22.5474 27.8897 22.5293 27.8911C22.5197 27.8918 22.5099 27.8926 22.4998 27.8934C22.4159 27.8993 22.3156 27.9048 22.202 27.9098C22.1973 27.9101 22.1926 27.9103 22.1879 27.9104C21.7947 27.9276 21.2454 27.9398 20.659 27.9483C20.6511 27.9484 20.6433 27.9485 20.6354 27.9487C19.8032 27.9605 18.8995 27.9648 18.263 27.965V27.9651L18.2629 27.9651C18.2545 27.9651 18.246 27.9651 18.2375 27.9651C18.2275 27.9651 18.2176 27.9651 18.2078 27.9651L18.2077 27.9651L18.2075 27.9649C17.5708 27.9647 16.667 27.9605 15.8346 27.9487C15.8277 27.9485 15.8208 27.9484 15.8139 27.9483C15.2259 27.9398 14.6752 27.9276 14.2813 27.9103C14.279 27.9103 14.2767 27.9102 14.2745 27.9101C14.158 27.9049 14.0554 27.8994 13.9699 27.8933C13.9638 27.8929 13.9578 27.8924 13.9519 27.892C13.9297 27.8904 13.9087 27.8887 13.889 27.887C13.8821 27.8864 13.8754 27.8857 13.8687 27.8851C13.8513 27.8834 13.8349 27.8819 13.8198 27.8803C13.8165 27.8799 13.8133 27.8795 13.8102 27.8791C13.7834 27.876 13.7607 27.8729 13.7423 27.8696C13.7411 27.8694 13.74 27.8691 13.7388 27.8689C13.7199 27.8654 13.7059 27.8619 13.6971 27.8581C13.6893 27.8548 13.6775 27.8494 13.6619 27.8421C13.625 27.8247 13.5673 27.7961 13.4914 27.757C13.4496 27.7354 13.4023 27.7106 13.35 27.6826C13.3142 27.6635 13.2762 27.643 13.236 27.6209C12.9059 27.4401 12.4317 27.1618 11.9065 26.8007C11.863 26.7706 11.8189 26.7402 11.7747 26.7091C10.6659 25.929 9.37043 24.7954 8.73001 23.4394C8.70904 23.3949 8.68878 23.3502 8.66923 23.3053C8.63984 23.2379 8.61216 23.17 8.58619 23.1015C8.57756 23.0787 8.56914 23.0558 8.56087 23.0329C8.50308 22.8724 8.45507 22.7091 8.41797 22.5433C8.39258 22.4296 8.36832 22.3106 8.34521 22.1868C8.33743 22.1456 8.32987 22.1038 8.32238 22.0615C8.30747 21.9769 8.29299 21.8903 8.27901 21.8017C8.26502 21.7132 8.25147 21.6228 8.23841 21.5307C8.22536 21.4385 8.2128 21.3446 8.2006 21.2492C8.19454 21.2014 8.18855 21.1533 8.1827 21.1048C8.10073 20.426 8.04023 19.6738 7.99643 18.9022C7.98701 18.7368 7.97838 18.5706 7.97053 18.404C7.92844 17.5154 7.9069 16.6164 7.89891 15.7873C7.89691 15.5799 7.89577 15.3771 7.89534 15.1797C7.89491 14.9825 7.8952 14.7908 7.8962 14.6059C7.89712 14.4212 7.89869 14.2433 7.90076 14.0734C7.90497 13.7338 7.91118 13.4267 7.9186 13.1622L7.70465 -3.35292H28.7659L28.5519 13.1622Z" fill="#EAB308"/>
<path d="M27.8385 10.0589C28.1238 5.92121 27.898 -0.618171 27.6958 -3.28151H26.0913C26.0909 -3.28193 26.0906 -3.28151 26.0906 -3.28151H26.0913C26.0961 -3.27649 26.1289 -3.14942 26.162 -0.677691C26.294 9.20826 27.8385 10.0589 27.8385 10.0589Z" fill="#111827"/>
<path d="M27.2677 14.6603L26.055 5.99256C25.6269 6.11146 24.4855 6.40632 23.344 6.63461C22.2026 6.8629 19.4204 6.96753 18.1719 6.99131V17.5852C17.946 17.6566 18.3431 17.7208 21.7389 17.4069C25.1347 17.093 26.8397 15.445 27.2677 14.6603Z" fill="#111827"/>
<path d="M25.8053 14.4106C26.8611 13.7258 26.4473 11.9494 26.2333 10.3086C26.1381 9.76163 25.9194 8.4395 25.8053 7.52635C25.6626 6.38491 24.1162 7.11935 22.8803 7.27667C20.9186 7.52635 19.6107 7.52635 18.1721 7.52635H18.1719V16.6935C18.8497 16.6935 21.0055 16.6087 22.0956 16.2654C24.0218 15.6591 24.4855 15.2667 25.8053 14.4106Z" fill="#4B5563"/>
<path d="M25.5199 25.2186C26.2048 24.9047 27.3509 23.2448 27.7671 22.472C27.6245 23.007 27.1964 24.1128 26.4474 24.8619C26.0468 25.2624 24.4142 26.4432 23.8078 26.7167C24.1407 26.3362 24.8351 25.5324 25.5199 25.2186Z" fill="#111827"/>
<path d="M8.63199 10.0589C8.34663 5.92121 8.42988 -0.618171 8.63199 -3.28151H10.3792C10.3796 -3.28193 10.3798 -3.28151 10.3798 -3.28151H10.3792C10.3744 -3.27649 10.3415 -3.14942 10.3085 -0.677691C10.1765 9.20826 8.63199 10.0589 8.63199 10.0589Z" fill="#111827"/>
<path d="M9.20282 14.6603L10.4156 5.99256C10.8436 6.11146 11.9851 6.40632 13.1265 6.63461C14.2679 6.8629 17.0502 6.96753 18.2986 6.99131V17.5852C18.5245 17.6566 18.1274 17.7208 14.7316 17.4069C11.3359 17.093 9.63086 15.445 9.20282 14.6603Z" fill="#111827"/>
<path d="M10.6652 14.4106C9.60935 13.7258 10.0232 11.9494 10.2371 10.3086C10.3323 9.76163 10.5511 8.4395 10.6652 7.52635C10.8079 6.38491 12.3542 7.11935 13.5902 7.27667C15.5519 7.52635 16.8597 7.52635 18.2984 7.52635H18.2986V16.6935C17.6208 16.6935 15.465 16.6087 14.3749 16.2654C12.4487 15.6591 11.985 15.2667 10.6652 14.4106Z" fill="#4B5563"/>
<path d="M10.9506 25.2186C10.2658 24.9047 9.11955 23.2448 8.70343 22.472C8.84611 23.007 9.27415 24.1128 10.0232 24.8619C10.4237 25.2624 12.0564 26.4432 12.6628 26.7167C12.3298 26.3362 11.6355 25.5324 10.9506 25.2186Z" fill="#111827"/>
<path d="M5.84985 8.91747C5.84985 8.91747 7.74042 9.88056 7.84743 10.0232C7.95444 10.166 7.84743 11.022 7.84743 11.3073H7.63341C6.38773 10.5288 5.86175 9.3931 5.84985 8.91747Z" fill="#EAB308"/>
<path d="M30.6208 8.91747C30.6089 9.3931 30.083 10.5288 28.8373 11.3073H28.6233C28.6233 11.022 28.5163 10.1659 28.6233 10.0232C28.7303 9.88056 30.6208 8.91747 30.6208 8.91747Z" fill="#EAB308"/>
<path d="M27.2678 14.6603C26.8397 15.445 25.1347 17.093 21.739 17.4069C19.4586 17.6177 18.5305 17.6577 18.2352 17.6399C17.9398 17.6577 17.0116 17.6176 14.7316 17.4069C11.3359 17.093 9.63086 15.445 9.20282 14.6603L10.4156 5.99256C10.8436 6.11146 11.9851 6.40632 13.1265 6.63461C14.249 6.85911 16.9584 6.96389 18.2353 6.98992C19.5122 6.96389 22.2216 6.85912 23.3441 6.63461C24.4855 6.40632 25.627 6.11146 26.055 5.99256L27.2678 14.6603Z" fill="#111827"/>
<path d="M22.167 7.27667C23.4029 7.11936 25.6162 6.39169 25.8053 7.52636C26.055 9.02449 26.1382 9.76164 26.2333 10.3086C26.4473 11.9494 26.6257 14.052 25.4129 14.8387C24.0931 15.6947 23.9269 15.8754 21.953 16.3011C20.2415 16.6703 19.0035 16.6921 18.2986 16.6933V16.6935C18.278 16.6935 18.2569 16.6934 18.2352 16.6934C18.2136 16.6934 18.1924 16.6935 18.172 16.6935V16.6933C17.4671 16.6921 16.2291 16.6703 14.5176 16.3011C12.5436 15.8754 12.3774 15.6947 11.0576 14.8387C9.84486 14.052 10.0232 11.9494 10.2372 10.3086C10.3323 9.76164 10.4155 9.02449 10.6652 7.52636C10.8543 6.39169 13.0677 7.11936 14.3036 7.27667C16.2364 7.52265 16.8421 7.52621 18.2352 7.52628C19.6285 7.52621 20.2342 7.52265 22.167 7.27667Z" fill="url(#paint0_linear_2014_1820)"/>
<path d="M8.77443 12.9787C8.80375 13.1782 8.88515 13.5007 8.98103 13.8171C9.07691 14.1336 9.18613 14.4404 9.27031 14.6087C9.29942 14.6669 9.32189 14.7507 9.34101 14.8545C9.3602 14.9589 9.37646 15.0866 9.39209 15.2339C9.42319 15.5267 9.45258 15.908 9.49688 16.3421C9.58599 17.215 9.7373 18.3272 10.0931 19.501C10.4493 20.6766 11.0016 22.1379 11.5276 23.4036C12.0539 24.6703 12.5521 25.7375 12.7999 26.1268C13.048 26.5167 13.2302 26.6964 13.4961 26.7994C13.6305 26.8514 13.7879 26.8843 13.9888 26.9132C14.19 26.9421 14.4317 26.9665 14.7358 27.0023C15.6924 27.1148 17.4477 27.1671 18.2352 27.1798C19.0226 27.1671 20.7782 27.1148 21.7348 27.0023C22.0388 26.9665 22.2806 26.9421 22.4818 26.9132C22.6827 26.8843 22.8401 26.8514 22.9745 26.7994C23.2404 26.6964 23.4226 26.5167 23.6707 26.1268C23.9185 25.7375 24.4167 24.6703 24.943 23.4036C25.4689 22.1379 26.0213 20.6766 26.3775 19.501C26.7333 18.327 26.8895 17.2237 26.9835 16.3597C27.0303 15.9296 27.062 15.5535 27.095 15.2638C27.1115 15.118 27.1286 14.9919 27.1484 14.8884C27.168 14.7856 27.1907 14.7024 27.2198 14.6443C27.3037 14.4765 27.408 14.1614 27.4991 13.8356C27.5901 13.5105 27.6667 13.1787 27.6961 12.9787L27.7007 12.9482H28.5519V13.0195H27.762C27.7291 13.2257 27.6546 13.5443 27.5678 13.8549C27.4767 14.1807 27.3709 14.5017 27.2835 14.6763C27.2591 14.7252 27.2377 14.8003 27.2184 14.9018C27.1992 15.0026 27.1824 15.1267 27.1659 15.2718C27.1327 15.5639 27.1016 15.9324 27.0543 16.3674C26.9602 17.2333 26.8034 18.3416 26.4458 19.5217C26.0886 20.7003 25.5353 22.1641 25.009 23.4309C24.483 24.6967 23.9825 25.7697 23.7308 26.1652C23.4796 26.56 23.2872 26.7548 23.0002 26.8659C22.8583 26.9208 22.6946 26.9547 22.492 26.9839C22.2896 27.013 22.0454 27.0376 21.7431 27.0732C20.7929 27.185 19.0618 27.2373 18.2624 27.2507V27.2517C18.2535 27.2516 18.2444 27.2514 18.2352 27.2512C18.2261 27.2514 18.2171 27.2516 18.2082 27.2517L18.2081 27.2507C17.4087 27.2373 15.6776 27.185 14.7274 27.0732C14.4252 27.0376 14.181 27.0129 13.9786 26.9839C13.776 26.9547 13.6123 26.9208 13.4703 26.8659C13.1834 26.7548 12.991 26.5599 12.7397 26.1652C12.4881 25.7697 11.9876 24.6967 11.4616 23.4309C10.9353 22.1641 10.3819 20.7003 10.0247 19.5217C9.6671 18.3414 9.51515 17.2242 9.4259 16.3493C9.38103 15.9095 9.35249 15.5374 9.3211 15.2414C9.30555 15.0946 9.2895 14.9692 9.27081 14.8674C9.25198 14.765 9.231 14.6894 9.2066 14.6406C9.11957 14.4665 9.00878 14.1549 8.91276 13.8378C8.82123 13.5357 8.74197 13.2253 8.70858 13.0195H7.91864V12.9482H8.76993L8.77443 12.9787Z" fill="#4B5563"/>
<path d="M26.0387 6.20316L25.9676 6.20999L25.0563 -3.31383L25.1274 -3.32067L26.0387 6.20316Z" fill="#4B5563"/>
<path d="M11.4142 -3.31391L10.5223 6.17425L10.4514 6.16756L11.3431 -3.3206L11.4142 -3.31391Z" fill="#4B5563"/>
<path d="M10.3792 -3.28151C10.3744 -3.27649 10.3415 -3.14942 10.3085 -0.67769C10.1765 9.20826 8.63199 10.0589 8.63199 10.0589C8.34663 5.92122 8.42988 -0.61817 8.63199 -3.28151H10.3792Z" fill="#111827"/>
<path d="M27.6958 -3.28151C27.898 -0.61817 28.1238 5.92122 27.8385 10.0589C27.8385 10.0589 26.294 9.20826 26.162 -0.67769C26.129 -3.14942 26.0961 -3.27649 26.0913 -3.28151H27.6958Z" fill="#111827"/>
<path d="M9.06006 10.808C8.84611 11.8067 8.83363 13.3681 8.77477 13.1622C8.6321 12.6628 7.93054 11.4857 7.5976 11.2717H7.84729V10.0589L5.84985 8.91748C5.84985 8.91748 5.89403 8.69497 5.99253 8.59645C6.09103 8.498 6.20648 8.56078 6.20648 8.56078C6.20673 8.56092 7.9543 9.45252 8.02564 9.63087C8.08257 9.77312 8.01722 9.90938 8.09698 10.0589C8.135 10.1302 8.63202 10.4156 8.63202 10.4156V10.0589L9.4525 8.31109L9.06006 10.808Z" fill="#111827"/>
<path d="M27.8385 10.0589L27.8385 10.4156C27.8426 10.4133 28.3356 10.13 28.3735 10.0589C28.4533 9.90938 28.388 9.77312 28.4449 9.63087C28.5163 9.45252 30.2641 8.56078 30.2641 8.56078C30.2661 8.55971 30.3804 8.49878 30.478 8.59645C30.5765 8.69497 30.6208 8.91748 30.6208 8.91748L28.6233 10.0589V11.2717H28.873C28.54 11.4857 27.8385 12.6628 27.6958 13.1622C27.6369 13.3681 27.6245 11.8067 27.4105 10.808L27.0181 8.31109L27.8385 10.0589Z" fill="#111827"/>
<path d="M8.70343 22.472C9.11955 23.2448 10.2658 24.9047 10.9506 25.2186C11.6355 25.5324 12.3298 26.3362 12.6628 26.7167C12.0564 26.4432 10.4237 25.2624 10.0232 24.8619C9.27415 24.1128 8.84611 23.007 8.70343 22.472Z" fill="#111827"/>
<path d="M27.7671 22.472C27.6245 23.007 27.1964 24.1128 26.4474 24.8619C26.0468 25.2624 24.4142 26.4432 23.8078 26.7167C24.1407 26.3362 24.8351 25.5324 25.5199 25.2186C26.2048 24.9047 27.3509 23.2448 27.7671 22.472Z" fill="#111827"/>
<path d="M15.4806 2.90049C15.4806 2.8352 15.5336 2.78228 15.599 2.78228H20.9267C20.9921 2.78228 21.0451 2.8352 21.0451 2.90049V4.73291C21.0451 4.7982 20.9921 4.85112 20.9267 4.85112H15.599C15.5336 4.85112 15.4806 4.7982 15.4806 4.73291V2.90049Z" fill="#F3F4F6"/>
<path d="M20.964 2.82154C20.975 2.80947 20.9937 2.80856 21.0058 2.81952C21.0179 2.83049 21.0188 2.84919 21.0079 2.86126L20.4358 3.48947C20.4467 3.50735 20.4531 3.52826 20.4531 3.55072V3.86252C20.4531 3.88496 20.4467 3.90584 20.4358 3.92371L21.0079 4.77216C21.0188 4.78424 21.0179 4.80293 21.0058 4.81391C20.9937 4.82486 20.975 4.82394 20.964 4.81188L20.3935 3.96504C20.3762 3.97496 20.3561 3.98074 20.3347 3.98074H16.1909C16.1695 3.98074 16.1495 3.97496 16.1322 3.96504L15.5617 4.81188C15.5507 4.82395 15.5321 4.82484 15.5199 4.81391C15.5079 4.80293 15.5069 4.78425 15.5179 4.77216L16.0899 3.92377C16.0789 3.90589 16.0726 3.88497 16.0726 3.86252V3.55072C16.0726 3.52825 16.0789 3.5073 16.0899 3.48942L15.5179 2.86126C15.5069 2.84918 15.5079 2.83049 15.5199 2.81952C15.5321 2.80857 15.5507 2.80947 15.5617 2.82154L16.1322 3.44814C16.1495 3.43822 16.1696 3.43249 16.191 3.43249H20.3348C20.3562 3.4325 20.3762 3.43823 20.3935 3.44814L20.964 2.82154Z" fill="#F9FAFB"/>
<path d="M14.8386 25.7181L15.0539 24.6996H15.6586L15.6134 24.9203H15.281L15.2483 25.0806H15.5576L15.5074 25.3014H15.1981L15.1584 25.4937H15.4907L15.4434 25.7181H14.8386Z" fill="#E83C3C"/>
<path d="M15.6412 25.7181L15.8565 24.6996H16.1289L16.0508 25.0772H16.2933L16.3713 24.6996H16.6444L16.4284 25.7181H16.156L16.2431 25.3029H16.0021L15.9136 25.7181H15.6412Z" fill="#E83C3C"/>
<path d="M17.1718 25.7181L17.337 24.9246H17.1161L17.1642 24.6996H17.8804L17.8309 24.9246H17.6093L17.4443 25.7181H17.1718Z" fill="#E83C3C"/>
<path d="M17.7103 25.7181L18.2287 24.6996H18.5791L18.6648 25.7181H18.3993L18.3924 25.5272H18.0803L17.9932 25.7181H17.7103ZM18.1799 25.3098H18.3841L18.3736 25.0172C18.3731 24.9945 18.3726 24.9719 18.3722 24.9497C18.3717 24.9273 18.3717 24.9062 18.3722 24.8862H18.368C18.361 24.9076 18.3534 24.9285 18.345 24.949C18.3371 24.9694 18.3283 24.9903 18.3186 25.0117L18.1799 25.3098Z" fill="#E83C3C"/>
<path d="M18.7819 25.7181L18.9971 24.6996H19.2695L19.1685 25.176L19.4883 24.6996H19.792L19.4298 25.2046L19.5851 25.7181H19.2855L19.1595 25.2172L19.0542 25.7181H18.7819Z" fill="#E83C3C"/>
<path d="M20.1291 25.732C20.0442 25.732 19.9738 25.7155 19.9181 25.6826C19.8623 25.6491 19.8208 25.6027 19.7933 25.5432C19.766 25.4837 19.7523 25.4145 19.7523 25.3356C19.7523 25.2748 19.7587 25.2134 19.7718 25.1517C19.7848 25.0899 19.805 25.0311 19.8324 24.9754C19.8598 24.9192 19.8949 24.8693 19.9376 24.8256C19.9803 24.7815 20.0312 24.7469 20.0902 24.7218C20.1491 24.6963 20.217 24.6835 20.2936 24.6835C20.3614 24.6835 20.4223 24.6916 20.4761 24.7079C20.53 24.7237 20.5809 24.746 20.6287 24.7748L20.5256 24.9873C20.4824 24.9617 20.4427 24.9427 20.4064 24.9301C20.3702 24.9171 20.3326 24.9107 20.2936 24.9107C20.2606 24.9107 20.2302 24.9181 20.2023 24.9329C20.1749 24.9478 20.1503 24.9684 20.1285 24.9949C20.1071 25.0214 20.0888 25.0521 20.0734 25.0869C20.0586 25.1213 20.0472 25.1586 20.0393 25.1991C20.0319 25.239 20.0281 25.2798 20.0281 25.3216C20.0281 25.3834 20.0412 25.4299 20.0672 25.461C20.0936 25.4916 20.131 25.507 20.1794 25.507C20.2207 25.507 20.2611 25.5018 20.3006 25.4916C20.34 25.4814 20.3851 25.4657 20.4357 25.4443V25.6693C20.386 25.6916 20.3356 25.7077 20.2845 25.7174C20.2339 25.7271 20.1821 25.732 20.1291 25.732Z" fill="#E83C3C"/>
<path d="M20.6016 25.7181L20.8168 24.6996H21.0648L20.9735 25.1259C20.9689 25.1491 20.9633 25.1742 20.9568 25.2011C20.9503 25.2276 20.9431 25.2555 20.9352 25.2848C20.9278 25.3135 20.9197 25.3432 20.9108 25.3739H20.9165L21.379 24.6996H21.7197L21.5044 25.7181H21.2564L21.3448 25.2959C21.35 25.2698 21.3555 25.2434 21.3616 25.2165C21.3676 25.1891 21.3746 25.16 21.3825 25.1294C21.3904 25.0983 21.3992 25.0648 21.409 25.0291H21.4034L20.9422 25.7181H20.6016Z" fill="#E83C3C"/>
<path d="M20.189 4.70844L19.9917 4.13773H20.2604L20.4577 4.70844H20.189Z" fill="#111827"/>
<path d="M19.5238 4.70844L19.1188 4.45497L19.0905 4.45457L18.5746 4.13773H18.8812L19.2521 4.37446H19.2872L19.8362 4.70844H19.5238ZM18.6552 4.70844L19.0905 4.37486H19.1265L19.3986 4.13773H19.6896L19.2764 4.45537H19.2453L18.9453 4.70844H18.6552Z" fill="#111827"/>
<path d="M17.2089 4.70844L17.7453 4.13773H17.9964L18.5319 4.70844H18.2436L17.9107 4.32743L17.8698 4.27363H17.865L17.8241 4.32703L17.4872 4.70844H17.2089ZM17.461 4.5821L17.534 4.5008H18.1794L18.2553 4.5821H17.461Z" fill="#111827"/>
<path d="M16.4793 4.70844L16.6567 4.18914H16.9234L16.7461 4.70844H16.4793ZM16.2653 4.23896V4.13773H17.3119V4.23896H16.2653Z" fill="#111827"/>
<path d="M13.359 23.7425C12.8509 23.8145 12.4397 23.714 12.1252 23.441C11.8104 23.1659 11.6607 22.7953 11.6762 22.3292C11.6844 22.0335 11.7566 21.7537 11.8926 21.4899C12.0305 21.2238 12.2212 20.9189 12.4651 20.5751L13.5912 18.9894L14.496 19.5571L13.6305 20.7046C13.5336 20.8312 13.3308 20.9999 13.0222 21.2108C12.7133 21.4197 12.4965 21.7627 12.3719 22.2401L11.9751 22.2931C12.1202 21.769 12.3466 21.3755 12.654 21.1125C12.9636 20.8492 13.3293 20.6877 13.7513 20.6279C14.1057 20.5777 14.414 20.674 14.6762 20.9169C14.9401 21.1573 15.0642 21.5023 15.0484 21.9517C15.0348 22.4154 14.8747 22.8121 14.5683 23.1418C14.264 23.4712 13.8608 23.6714 13.359 23.7425ZM13.3627 22.7297C13.5307 22.7058 13.6727 22.6314 13.7887 22.5063C13.9044 22.3792 13.9638 22.2307 13.967 22.0611C13.9753 21.8844 13.9234 21.7465 13.8112 21.6474C13.7007 21.5461 13.5584 21.5078 13.3843 21.5324C13.2143 21.5566 13.0694 21.6325 12.9495 21.7602C12.8318 21.8876 12.7693 22.0365 12.7621 22.2067C12.7578 22.3828 12.8118 22.5204 12.924 22.6194C13.0362 22.7185 13.1825 22.7552 13.3627 22.7297Z" fill="#1E40AF"/>
<path d="M16.1078 23.2684L16.2047 20.2364L15.6248 20.7448L15.0928 20.021L16.6545 18.6996L17.438 18.5885L17.2846 23.1016L16.1078 23.2684Z" fill="#1E40AF"/>
<path d="M19.7599 22.8387C19.2171 22.9156 18.7806 22.7549 18.4505 22.3566C18.12 21.9563 17.9657 21.4056 17.9876 20.7046C18.0109 20.0138 18.1852 19.4376 18.5105 18.9756C18.8378 18.5134 19.2739 18.2437 19.8188 18.1665C20.3595 18.0899 20.7972 18.2515 21.1318 18.6512C21.466 19.0489 21.6221 19.5972 21.5999 20.2961C21.5752 20.9767 21.3985 21.5513 21.07 22.0199C20.7436 22.4883 20.3069 22.7611 19.7599 22.8387ZM19.7555 21.7235C19.9542 21.6953 20.1106 21.575 20.2246 21.3624C20.3387 21.1498 20.4027 20.8346 20.4166 20.4168C20.432 19.9946 20.3881 19.6927 20.2851 19.5108C20.182 19.3291 20.0291 19.2525 19.8263 19.2813C19.6337 19.3085 19.4786 19.4298 19.3607 19.645C19.2449 19.8599 19.1807 20.1741 19.1682 20.5875C19.1552 20.9968 19.1986 21.2957 19.2985 21.4842C19.4004 21.6725 19.5527 21.7522 19.7555 21.7235Z" fill="#1E40AF"/>
<path d="M23.5849 22.2935C23.0769 22.3655 22.6656 22.265 22.3512 21.9919C22.0363 21.7169 21.8867 21.3463 21.9021 20.8802C21.9104 20.5844 21.9825 20.3046 22.1185 20.0409C22.2564 19.7748 22.4472 19.4699 22.691 19.126L23.8172 17.5404L24.7219 18.108L23.8565 19.2555C23.7595 19.3821 23.5567 19.5508 23.248 19.7617C22.9391 19.9705 22.7224 20.3137 22.5978 20.791L22.201 20.8441C22.3462 20.32 22.5725 19.9264 22.8799 19.6634C23.1895 19.4002 23.5553 19.2387 23.9773 19.1789C24.3316 19.1287 24.6399 19.225 24.902 19.4678C25.166 19.7083 25.2901 20.0532 25.2744 20.5027C25.2607 20.9664 25.1006 21.3631 24.7942 21.6927C24.4899 22.0221 24.0867 22.2224 23.5849 22.2935ZM23.5887 21.2806C23.7566 21.2568 23.8986 21.1823 24.0146 21.0573C24.1303 20.9301 24.1897 20.7817 24.1929 20.612C24.2013 20.4353 24.1493 20.2974 24.0371 20.1984C23.9266 20.097 23.7843 20.0587 23.6102 20.0834C23.4402 20.1075 23.2953 20.1834 23.1755 20.3111C23.0577 20.4385 22.9952 20.5874 22.988 20.7576C22.9837 20.9338 23.0377 21.0714 23.15 21.1704C23.2622 21.2694 23.4084 21.3062 23.5887 21.2806Z" fill="#1E40AF"/>
<path d="M28.7049 -1.29986L28.7184 -2.26285C28.8622 -2.34407 29.1456 -2.20692 29.1288 -1.00854C29.1121 0.189848 28.8216 0.556785 28.6784 0.590454L28.6889 -0.158537C28.7614 -0.24076 28.9379 -0.103692 28.9471 -0.761371C28.9563 -1.41905 28.7991 -1.23908 28.7049 -1.29986Z" fill="#EAB308"/>
<path d="M7.78961 -1.29986L7.77613 -2.26285C7.63231 -2.34407 7.34888 -2.20692 7.36564 -1.00854C7.38241 0.189848 7.6729 0.556785 7.81608 0.590454L7.80559 -0.158537C7.73311 -0.24076 7.55662 -0.103692 7.54741 -0.761371C7.53821 -1.41905 7.69537 -1.23908 7.78961 -1.29986Z" fill="#EAB308"/>
<path d="M8.41797 4.77559H8.63199V5.5813H8.41797V4.77559Z" fill="#F9FAFB"/>
<path d="M8.20398 4.77559H8.418V5.5813H8.20398V4.77559Z" fill="#111827"/>
<path d="M8.418 4.77559H8.20398V3.96987H8.418V4.77559Z" fill="#F9FAFB"/>
<path d="M8.63199 4.77559H8.41797V3.96987H8.63199V4.77559Z" fill="#111827"/>
<path d="M8.41797 1.55272H8.63199V2.35843H8.41797V1.55272Z" fill="#F9FAFB"/>
<path d="M8.20398 1.55272H8.418V2.35843H8.20398V1.55272Z" fill="#111827"/>
<path d="M8.418 1.55272H8.20398V0.747004H8.418V1.55272Z" fill="#F9FAFB"/>
<path d="M8.63199 1.55272H8.41797V0.747004H8.63199V1.55272Z" fill="#111827"/>
<path d="M8.41797 3.16415H8.63199V3.96987H8.41797V3.16415Z" fill="#F9FAFB"/>
<path d="M8.20398 3.16415H8.418V3.96987H8.20398V3.16415Z" fill="#111827"/>
<path d="M8.418 3.16415H8.20398V2.35843H8.418V3.16415Z" fill="#F9FAFB"/>
<path d="M8.63199 3.16415H8.41797V2.35843H8.63199V3.16415Z" fill="#111827"/>
<path d="M8.41797 -0.0587158H8.63199V0.747002H8.41797V-0.0587158Z" fill="#F9FAFB"/>
<path d="M8.20398 -0.0587158H8.418V0.747002H8.20398V-0.0587158Z" fill="#111827"/>
<path d="M8.41797 9.6099H8.63199V10.4156L8.41797 10.3086V9.6099Z" fill="#F9FAFB"/>
<path d="M8.20398 9.6099H8.418V10.3086L8.20398 10.4156V9.6099Z" fill="#111827"/>
<path d="M8.418 9.6099H8.20398V8.80419H8.418V9.6099Z" fill="#F9FAFB"/>
<path d="M8.63199 9.6099H8.41797V8.80419H8.63199V9.6099Z" fill="#111827"/>
<path d="M8.41797 6.38702H8.63199V7.19277H8.41797V6.38702Z" fill="#F9FAFB"/>
<path d="M8.20398 6.38702H8.418V7.19277H8.20398V6.38702Z" fill="#111827"/>
<path d="M8.418 6.38702H8.20398V5.5813H8.418V6.38702Z" fill="#F9FAFB"/>
<path d="M8.63199 6.38702H8.41797V5.5813H8.63199V6.38702Z" fill="#111827"/>
<path d="M8.41797 7.99848H8.63199V8.80419H8.41797V7.99848Z" fill="#F9FAFB"/>
<path d="M8.20398 7.99848H8.418V8.80419H8.20398V7.99848Z" fill="#111827"/>
<path d="M8.418 7.99848H8.20398V7.19277H8.418V7.99848Z" fill="#F9FAFB"/>
<path d="M8.63199 7.99848H8.41797V7.19277H8.63199V7.99848Z" fill="#111827"/>
<path d="M27.965 4.84693H27.751V5.65265H27.965V4.84693Z" fill="#F9FAFB"/>
<path d="M28.179 4.84693H27.965V5.65265H28.179V4.84693Z" fill="#111827"/>
<path d="M27.965 4.84693H28.179V4.04121H27.965V4.84693Z" fill="#F9FAFB"/>
<path d="M27.751 4.84693H27.965V4.04121H27.751V4.84693Z" fill="#111827"/>
<path d="M27.965 1.62406H27.751V2.42977H27.965V1.62406Z" fill="#F9FAFB"/>
<path d="M28.179 1.62406H27.965V2.42977H28.179V1.62406Z" fill="#111827"/>
<path d="M27.965 1.62406H28.179V0.818342H27.965V1.62406Z" fill="#F9FAFB"/>
<path d="M27.751 1.62406H27.965V0.818342H27.751V1.62406Z" fill="#111827"/>
<path d="M27.965 3.23549H27.751V4.04121H27.965V3.23549Z" fill="#F9FAFB"/>
<path d="M28.179 3.23549H27.965V4.04121H28.179V3.23549Z" fill="#111827"/>
<path d="M27.965 3.23549H28.179V2.42977H27.965V3.23549Z" fill="#F9FAFB"/>
<path d="M27.751 3.23549H27.965V2.42977H27.751V3.23549Z" fill="#111827"/>
<path d="M27.965 0.0126247H27.751V0.818343H27.965V0.0126247Z" fill="#F9FAFB"/>
<path d="M28.179 0.0126247H27.965V0.818343H28.179V0.0126247Z" fill="#111827"/>
<path d="M27.965 0.0126246H28.179V-0.793089H27.965V0.0126246Z" fill="#F9FAFB"/>
<path d="M27.751 0.0126246H27.965V-0.793089H27.751V0.0126246Z" fill="#111827"/>
<path d="M27.965 9.68123H27.751V10.4869L27.965 10.3799V9.68123Z" fill="#F9FAFB"/>
<path d="M28.179 9.68123H27.965V10.3799L28.179 10.4869V9.68123Z" fill="#111827"/>
<path d="M27.965 9.68124H28.179V8.87553H27.965V9.68124Z" fill="#F9FAFB"/>
<path d="M27.751 9.68124H27.965V8.87553H27.751V9.68124Z" fill="#111827"/>
<path d="M27.965 6.45836H27.751V7.26411H27.965V6.45836Z" fill="#F9FAFB"/>
<path d="M28.179 6.45836H27.965V7.26411H28.179V6.45836Z" fill="#111827"/>
<path d="M27.965 6.45836H28.179V5.65264H27.965V6.45836Z" fill="#F9FAFB"/>
<path d="M27.751 6.45836H27.965V5.65264H27.751V6.45836Z" fill="#111827"/>
<path d="M27.965 8.06982H27.751V8.87553H27.965V8.06982Z" fill="#F9FAFB"/>
<path d="M28.179 8.06982H27.965V8.87553H28.179V8.06982Z" fill="#111827"/>
<path d="M27.965 8.06982H28.179V7.26411H27.965V8.06982Z" fill="#F9FAFB"/>
<path d="M27.751 8.06982H27.965V7.26411H27.751V8.06982Z" fill="#111827"/>
<path d="M16.9178 7.62687C16.8761 7.44788 17.0119 7.27667 17.1957 7.27667H19.2587C19.4426 7.27667 19.5784 7.44788 19.5367 7.62687L19.1704 9.19634C19.1403 9.32547 19.0252 9.41685 18.8925 9.41685H17.5619C17.4293 9.41685 17.3142 9.32547 17.2841 9.19634L16.9178 7.62687Z" fill="#111827"/>
</g>
</g>
<defs>
<linearGradient id="paint0_linear_2014_1820" x1="5.84984" y1="12.3061" x2="30.6208" y2="12.3061" gradientUnits="userSpaceOnUse">
<stop offset="0.278846" stop-color="#475076"/>
<stop offset="0.658654" stop-color="#8595DC"/>
</linearGradient>
<clipPath id="clip0_2014_1820">
<rect width="36.5258" height="36.5258" fill="white"/>
</clipPath>
</defs>
</svg>
