<svg width="181" height="55" viewBox="0 0 181 55" fill="none" xmlns="http://www.w3.org/2000/svg">
<rect width="181" height="55" rx="27.5" fill="#F9FAFB"/>
<path d="M55.2045 28.2631C55.2166 27.3432 55.4669 26.4412 55.9321 25.6411C56.3972 24.841 57.0621 24.1688 57.8648 23.687C57.3548 22.9759 56.6821 22.3908 55.9 21.978C55.1178 21.5652 54.2479 21.3361 53.3592 21.309C51.4635 21.1147 49.6258 22.4164 48.6598 22.4164C47.6751 22.4164 46.1878 21.3282 44.5862 21.3604C43.5502 21.3931 42.5406 21.6872 41.6557 22.2141C40.7708 22.741 40.0407 23.4826 39.5367 24.3669C37.3535 28.0573 38.982 33.4809 41.0734 36.464C42.1197 37.9247 43.3426 39.5563 44.9428 39.4985C46.5086 39.4351 47.0934 38.5237 48.9835 38.5237C50.8561 38.5237 51.4048 39.4985 53.0374 39.4617C54.7176 39.4351 55.7762 37.9945 56.7859 36.5199C57.5377 35.4791 58.1162 34.3288 58.5 33.1116C57.5238 32.7085 56.6908 32.0338 56.1048 31.1716C55.5187 30.3094 55.2056 29.2979 55.2045 28.2631Z" fill="#151515"/>
<path d="M52.1208 19.3471C53.0369 18.2734 53.4883 16.8934 53.379 15.5C51.9794 15.6435 50.6865 16.2966 49.758 17.3291C49.304 17.8335 48.9563 18.4203 48.7348 19.056C48.5132 19.6917 48.4222 20.3638 48.4669 21.0338C49.1669 21.0408 49.8595 20.8927 50.4924 20.6005C51.1254 20.3084 51.6821 19.8798 52.1208 19.3471Z" fill="#151515"/>
<path d="M68.3481 15.5752H69.3105V18.981C69.3105 19.1274 69.3091 19.2886 69.3062 19.4644C69.3032 19.6401 69.2974 19.8115 69.2886 19.9785C69.2827 20.1455 69.2769 20.2949 69.271 20.4268C69.2651 20.5557 69.2593 20.6494 69.2534 20.708H69.2842L72.5537 15.5752H73.7798V22H72.8262V18.6206C72.8262 18.4624 72.8291 18.291 72.835 18.1064C72.8408 17.9219 72.8481 17.7432 72.8569 17.5703C72.8657 17.3975 72.8745 17.2451 72.8833 17.1133C72.8921 16.9814 72.8979 16.8877 72.9009 16.832H72.8613L69.583 22H68.3481V15.5752ZM76.8779 17.043C77.2354 17.043 77.5562 17.0913 77.8403 17.188C78.1274 17.2817 78.3545 17.4238 78.5215 17.6143C78.6885 17.8047 78.772 18.042 78.772 18.3262C78.772 18.6191 78.687 18.8535 78.5171 19.0293C78.3501 19.2021 78.123 19.3267 77.8359 19.4028V19.4424C78.0381 19.4922 78.2212 19.564 78.3853 19.6577C78.5493 19.7485 78.6797 19.8716 78.7764 20.0269C78.876 20.1792 78.9258 20.3755 78.9258 20.6157C78.9258 20.8882 78.8452 21.1357 78.6841 21.3584C78.5259 21.5811 78.2827 21.7583 77.9546 21.8901C77.6265 22.022 77.209 22.0879 76.7021 22.0879C76.459 22.0879 76.2275 22.0747 76.0078 22.0483C75.791 22.0249 75.5933 21.9912 75.4146 21.9473C75.2358 21.9004 75.0806 21.8447 74.9487 21.7803V20.8926C75.1509 20.9893 75.3955 21.0771 75.6826 21.1562C75.9697 21.2324 76.2773 21.2705 76.6055 21.2705C76.8486 21.2705 77.0684 21.2485 77.2646 21.2046C77.4639 21.1577 77.6206 21.0815 77.7349 20.9761C77.8521 20.8706 77.9106 20.73 77.9106 20.5542C77.9106 20.3931 77.8594 20.2598 77.7568 20.1543C77.6543 20.0488 77.5005 19.9712 77.2954 19.9214C77.0903 19.8687 76.8311 19.8423 76.5176 19.8423H75.9375V19.082H76.4473C76.8779 19.082 77.2148 19.0352 77.458 18.9414C77.7041 18.8447 77.8271 18.6777 77.8271 18.4404C77.8271 18.2412 77.7407 18.0918 77.5679 17.9922C77.395 17.8926 77.1299 17.8428 76.7725 17.8428C76.5264 17.8428 76.2832 17.8706 76.043 17.9263C75.8027 17.979 75.5625 18.0552 75.3223 18.1548L74.9971 17.3945C75.2637 17.2861 75.5493 17.2012 75.854 17.1396C76.1587 17.0752 76.5 17.043 76.8779 17.043ZM83.7158 17.9482H82.1162V22H81.0879V17.9482H79.4971V17.1353H83.7158V17.9482ZM86.5942 17.043C87.0278 17.043 87.3999 17.1323 87.7104 17.311C88.021 17.4897 88.2598 17.7432 88.4268 18.0713C88.5938 18.3994 88.6772 18.792 88.6772 19.249V19.8027H85.4297C85.4414 20.2744 85.5674 20.6377 85.8076 20.8926C86.0508 21.1475 86.3906 21.2749 86.8271 21.2749C87.1377 21.2749 87.416 21.2456 87.6621 21.187C87.9111 21.1255 88.1675 21.0361 88.4312 20.9189V21.7583C88.188 21.8726 87.9404 21.9561 87.6885 22.0088C87.4365 22.0615 87.1348 22.0879 86.7832 22.0879C86.3057 22.0879 85.8853 21.9956 85.522 21.811C85.1616 21.6235 84.8789 21.3452 84.6738 20.9761C84.4717 20.6069 84.3706 20.1484 84.3706 19.6006C84.3706 19.0557 84.4629 18.5928 84.6475 18.2119C84.832 17.8311 85.0913 17.541 85.4253 17.3418C85.7593 17.1426 86.1489 17.043 86.5942 17.043ZM86.5942 17.8208C86.269 17.8208 86.0054 17.9263 85.8032 18.1372C85.604 18.3481 85.4868 18.6572 85.4517 19.0645H87.6665C87.6636 18.8213 87.6226 18.606 87.5435 18.4185C87.4673 18.231 87.3501 18.0845 87.1919 17.979C87.0366 17.8735 86.8374 17.8208 86.5942 17.8208ZM92.9971 17.1353V17.9482H90.8789V22H89.8418V17.1353H92.9971ZM97.9409 22H96.8994V17.9438H95.5503C95.4917 18.6821 95.4185 19.3135 95.3306 19.8379C95.2427 20.3623 95.1328 20.79 95.001 21.1211C94.8691 21.4492 94.7065 21.6895 94.5132 21.8418C94.3198 21.9941 94.0869 22.0703 93.8145 22.0703C93.6943 22.0703 93.5859 22.0615 93.4893 22.0439C93.3926 22.0293 93.3062 22.0059 93.23 21.9736V21.1606C93.2798 21.1782 93.334 21.1929 93.3926 21.2046C93.4512 21.2163 93.5112 21.2222 93.5728 21.2222C93.6812 21.2222 93.7808 21.1782 93.8716 21.0903C93.9653 20.9995 94.0518 20.8574 94.1309 20.6641C94.21 20.4707 94.2817 20.2158 94.3462 19.8994C94.4106 19.5801 94.4692 19.1934 94.522 18.7393C94.5747 18.2822 94.6216 17.7476 94.6626 17.1353H97.9409V22ZM100.415 17.1353V19.6182C100.415 19.6973 100.412 19.7983 100.406 19.9214C100.403 20.0415 100.397 20.1675 100.389 20.2993C100.38 20.4282 100.371 20.5469 100.362 20.6553C100.354 20.7637 100.346 20.8442 100.34 20.897L102.788 17.1353H104.045V22H103.056V19.5435C103.056 19.4146 103.059 19.2651 103.065 19.0952C103.074 18.9253 103.083 18.7612 103.091 18.603C103.103 18.4448 103.11 18.3247 103.113 18.2427L100.674 22H99.4219V17.1353H100.415ZM112.175 19.5566C112.175 19.9609 112.122 20.3198 112.017 20.6333C111.911 20.9468 111.757 21.2119 111.555 21.4287C111.353 21.6426 111.11 21.8066 110.826 21.9209C110.542 22.0322 110.221 22.0879 109.863 22.0879C109.529 22.0879 109.223 22.0322 108.945 21.9209C108.667 21.8066 108.425 21.6426 108.22 21.4287C108.018 21.2119 107.861 20.9468 107.75 20.6333C107.638 20.3198 107.583 19.9609 107.583 19.5566C107.583 19.0205 107.675 18.5664 107.859 18.1943C108.047 17.8193 108.313 17.5337 108.659 17.3374C109.005 17.1411 109.417 17.043 109.894 17.043C110.342 17.043 110.738 17.1411 111.081 17.3374C111.423 17.5337 111.691 17.8193 111.885 18.1943C112.078 18.5693 112.175 19.0234 112.175 19.5566ZM108.646 19.5566C108.646 19.9111 108.688 20.2144 108.773 20.4663C108.861 20.7183 108.996 20.9116 109.178 21.0464C109.359 21.1782 109.594 21.2441 109.881 21.2441C110.168 21.2441 110.402 21.1782 110.584 21.0464C110.766 20.9116 110.899 20.7183 110.984 20.4663C111.069 20.2144 111.111 19.9111 111.111 19.5566C111.111 19.2021 111.069 18.9019 110.984 18.6558C110.899 18.4067 110.766 18.2178 110.584 18.0889C110.402 17.957 110.167 17.8911 109.876 17.8911C109.449 17.8911 109.137 18.0347 108.94 18.3218C108.744 18.6089 108.646 19.0205 108.646 19.5566ZM117.035 17.9482H115.436V22H114.407V17.9482H112.816V17.1353H117.035V17.9482Z" fill="#151515"/>
<path d="M69.7061 38H67.6758L71.8066 26.0029H74.0391L78.1611 38H76.0518L74.9883 34.6777H70.7783L69.7061 38ZM72.9316 28.0771H72.8525L71.2266 33.1484H74.54L72.9316 28.0771ZM83.7644 38.1318C82.5603 38.1318 81.6462 37.5605 81.154 36.708H81.0837V41.085H79.1325V28.71H81.031V30.0723H81.1013C81.6111 29.1846 82.5603 28.5869 83.8083 28.5869C85.8913 28.5869 87.3767 30.1602 87.3767 32.9375V33.7637C87.3767 36.5234 85.9089 38.1318 83.7644 38.1318ZM83.3161 36.5234C84.5554 36.5234 85.3991 35.5303 85.3991 33.6582V33.0078C85.3991 31.2061 84.6081 30.1777 83.281 30.1777C81.9187 30.1777 81.0661 31.2852 81.0661 32.999V33.6582C81.0661 35.416 81.9275 36.5234 83.3161 36.5234ZM93.683 38.1318C92.4789 38.1318 91.5649 37.5605 91.0727 36.708H91.0024V41.085H89.0512V28.71H90.9496V30.0723H91.02C91.5297 29.1846 92.4789 28.5869 93.727 28.5869C95.81 28.5869 97.2954 30.1602 97.2954 32.9375V33.7637C97.2954 36.5234 95.8276 38.1318 93.683 38.1318ZM93.2348 36.5234C94.4741 36.5234 95.3178 35.5303 95.3178 33.6582V33.0078C95.3178 31.2061 94.5268 30.1777 93.1996 30.1777C91.8373 30.1777 90.9848 31.2852 90.9848 32.999V33.6582C90.9848 35.416 91.8461 36.5234 93.2348 36.5234ZM101.339 34.6689H103.29C103.378 35.7061 104.292 36.5938 105.988 36.5938C107.544 36.5938 108.467 35.8643 108.467 34.7305C108.467 33.8164 107.851 33.3242 106.568 33.0166L104.599 32.5244C103.053 32.1641 101.664 31.2412 101.664 29.29C101.664 26.9961 103.668 25.7393 105.997 25.7393C108.326 25.7393 110.268 26.9961 110.312 29.2373H108.396C108.308 28.2178 107.526 27.374 105.971 27.374C104.599 27.374 103.668 28.0244 103.668 29.1406C103.668 29.9229 104.213 30.4854 105.329 30.7402L107.289 31.2236C109.091 31.6631 110.462 32.5156 110.462 34.5547C110.462 36.9102 108.555 38.2373 105.839 38.2373C102.499 38.2373 101.383 36.2861 101.339 34.6689ZM112.839 28.71V26.4512H114.755V28.71H116.566V30.2744H114.755V35.2314C114.755 36.2422 115.133 36.5234 116.179 36.5234C116.346 36.5234 116.504 36.5234 116.619 36.5059V38C116.461 38.0264 116.091 38.0615 115.696 38.0615C113.437 38.0615 112.813 37.2529 112.813 35.3896V30.2744H111.53V28.71H112.839ZM121.835 28.5518C124.507 28.5518 125.957 30.4326 125.957 32.9639V33.7109C125.957 36.3301 124.516 38.1582 121.835 38.1582C119.155 38.1582 117.696 36.3301 117.696 33.7109V32.9639C117.696 30.4414 119.163 28.5518 121.835 28.5518ZM121.835 30.1162C120.385 30.1162 119.664 31.3027 119.664 32.9902V33.7021C119.664 35.3633 120.376 36.585 121.835 36.585C123.294 36.585 123.997 35.3721 123.997 33.7021V32.9902C123.997 31.2939 123.285 30.1162 121.835 30.1162ZM127.606 38V28.71H129.557V29.9316H129.627C129.864 29.3516 130.559 28.5781 131.851 28.5781C132.106 28.5781 132.325 28.5957 132.51 28.6309V30.3535C132.343 30.3096 132 30.2832 131.675 30.2832C130.11 30.2832 129.583 31.25 129.583 32.498V38H127.606ZM137.243 38.1582C134.756 38.1582 133.174 36.5146 133.174 33.7637V32.8232C133.174 30.2305 134.72 28.5518 137.164 28.5518C139.642 28.5518 141.136 30.292 141.136 32.9111V33.7988H135.098V34.0186C135.098 35.583 135.942 36.6201 137.269 36.6201C138.262 36.6201 138.939 36.1279 139.177 35.3281H141.031C140.75 36.8311 139.537 38.1582 137.243 38.1582ZM135.098 32.4365H139.229V32.4189C139.229 31.1006 138.412 30.0635 137.173 30.0635C135.916 30.0635 135.098 31.1006 135.098 32.4189V32.4365Z" fill="#151515"/>
</svg>
