<svg width="181" height="54" viewBox="0 0 181 54" fill="none" xmlns="http://www.w3.org/2000/svg">
<rect width="181" height="54" rx="27" fill="#FCFCFC"/>
<path d="M49.3048 26.4617L39.5896 37.0059C39.5905 37.0078 39.5905 37.0106 39.5914 37.0125C39.8898 38.1574 40.9118 39 42.1254 39C42.6108 39 43.0662 38.8656 43.4567 38.6305L43.4877 38.6118L54.4229 32.1593L49.3048 26.4617Z" fill="#EA4335"/>
<path d="M59.1331 24.6662L59.124 24.6597L54.4028 21.8612L49.0839 26.7013L54.422 32.1582L59.1176 29.3878C59.9407 28.9324 60.5 28.045 60.5 27.0223C60.5 26.0052 59.9489 25.1225 59.1331 24.6662Z" fill="#FBBC04"/>
<path d="M39.5894 16.9933C39.531 17.2135 39.5 17.4449 39.5 17.6838V36.3163C39.5 36.5552 39.531 36.7866 39.5903 37.0059L49.6386 26.7313L39.5894 16.9933Z" fill="#4285F4"/>
<path d="M49.3766 26.9999L54.4044 21.8594L43.4819 15.3835C43.085 15.14 42.6214 15 42.126 15C40.9124 15 39.8886 15.8445 39.5902 16.9904C39.5902 16.9913 39.5893 16.9922 39.5893 16.9932L49.3766 26.9999Z" fill="#34A853"/>
<path d="M68.4863 14.8613H69.2627V18.9873C69.2627 19.1436 69.2611 19.3145 69.2578 19.5C69.2546 19.6823 69.2497 19.8613 69.2432 20.0371C69.2367 20.2129 69.2285 20.3724 69.2188 20.5156C69.2122 20.6589 69.2057 20.7695 69.1992 20.8477H69.2383L73.2129 14.8613H74.126V22H73.3496V17.9229C73.3496 17.7503 73.3529 17.568 73.3594 17.376C73.3659 17.1807 73.3724 16.9919 73.3789 16.8096C73.3887 16.6273 73.3984 16.4645 73.4082 16.3213C73.418 16.1748 73.4245 16.0625 73.4277 15.9844H73.3838L69.4043 22H68.4863V14.8613ZM80.2393 16.5361C80.2393 17.0212 80.0895 17.4053 79.79 17.6885C79.4906 17.9684 79.0902 18.1507 78.5889 18.2354V18.2695C79.1748 18.3542 79.6208 18.543 79.9268 18.8359C80.2327 19.1289 80.3857 19.513 80.3857 19.9883C80.3857 20.4082 80.2799 20.7777 80.0684 21.0967C79.86 21.4124 79.5459 21.6582 79.126 21.834C78.7061 22.0098 78.1836 22.0977 77.5586 22.0977C77.1712 22.0977 76.8018 22.0667 76.4502 22.0049C76.0986 21.9463 75.7764 21.847 75.4834 21.707V20.9404C75.6852 21.0381 75.9033 21.1227 76.1377 21.1943C76.3721 21.266 76.6097 21.3213 76.8506 21.3604C77.0947 21.3962 77.3275 21.4141 77.5488 21.4141C78.1934 21.4141 78.6816 21.2904 79.0137 21.043C79.349 20.7923 79.5166 20.4408 79.5166 19.9883C79.5166 19.5228 79.3229 19.1842 78.9355 18.9727C78.5514 18.7578 78.0111 18.6504 77.3145 18.6504H76.2891V17.9521H77.2803C77.749 17.9521 78.138 17.8984 78.4473 17.791C78.7565 17.6803 78.9876 17.5257 79.1406 17.3271C79.2969 17.1253 79.375 16.8877 79.375 16.6143C79.375 16.2399 79.2383 15.9518 78.9648 15.75C78.6947 15.5482 78.3415 15.4473 77.9053 15.4473C77.4528 15.4473 77.0785 15.5059 76.7822 15.623C76.486 15.737 76.1979 15.8851 75.918 16.0674L75.5176 15.501C75.7064 15.3643 75.9212 15.2406 76.1621 15.1299C76.403 15.016 76.6699 14.9264 76.9629 14.8613C77.2559 14.793 77.5716 14.7588 77.9102 14.7588C78.4147 14.7588 78.8395 14.8353 79.1846 14.9883C79.5296 15.138 79.7917 15.3464 79.9707 15.6133C80.1497 15.8802 80.2393 16.1878 80.2393 16.5361ZM84.0967 22H83.2617V15.5938H81.0156V14.8613H86.333V15.5938H84.0967V22ZM91.3867 22H87.4121V14.8613H91.3867V15.5938H88.2422V17.9033H91.2061V18.626H88.2422V21.2676H91.3867V22ZM96.9775 14.8613V15.6035H93.7988V22H92.9688V14.8613H96.9775ZM103.252 22H102.422V15.5938H100.107C100.062 15.9583 100.013 16.3392 99.9609 16.7363C99.9089 17.1335 99.8551 17.529 99.7998 17.9229C99.7445 18.3167 99.6891 18.6895 99.6338 19.041C99.5785 19.3926 99.5231 19.7051 99.4678 19.9785C99.3831 20.431 99.2773 20.8167 99.1504 21.1357C99.0267 21.4515 98.8607 21.694 98.6523 21.8633C98.4473 22.0293 98.1755 22.1123 97.8369 22.1123C97.723 22.1123 97.609 22.1009 97.4951 22.0781C97.3844 22.0553 97.2868 22.0277 97.2021 21.9951V21.2969C97.277 21.3294 97.36 21.3571 97.4512 21.3799C97.5456 21.4027 97.6449 21.4141 97.749 21.4141C97.9541 21.4141 98.1152 21.3327 98.2324 21.1699C98.3529 21.0039 98.4473 20.7939 98.5156 20.54C98.5872 20.2861 98.6491 20.0257 98.7012 19.7588C98.7435 19.5374 98.7923 19.2575 98.8477 18.9189C98.903 18.5804 98.9616 18.1963 99.0234 17.7666C99.0853 17.3337 99.1488 16.8714 99.2139 16.3799C99.2822 15.8883 99.349 15.3822 99.4141 14.8613H103.252V22ZM105.215 14.8613H105.991V18.9873C105.991 19.1436 105.99 19.3145 105.986 19.5C105.983 19.6823 105.978 19.8613 105.972 20.0371C105.965 20.2129 105.957 20.3724 105.947 20.5156C105.941 20.6589 105.934 20.7695 105.928 20.8477H105.967L109.941 14.8613H110.854V22H110.078V17.9229C110.078 17.7503 110.081 17.568 110.088 17.376C110.094 17.1807 110.101 16.9919 110.107 16.8096C110.117 16.6273 110.127 16.4645 110.137 16.3213C110.146 16.1748 110.153 16.0625 110.156 15.9844H110.112L106.133 22H105.215V14.8613ZM121.592 18.4209C121.592 18.971 121.522 19.4723 121.382 19.9248C121.242 20.374 121.034 20.7614 120.757 21.0869C120.483 21.4092 120.143 21.6582 119.736 21.834C119.329 22.0098 118.857 22.0977 118.32 22.0977C117.767 22.0977 117.284 22.0098 116.87 21.834C116.46 21.6582 116.118 21.4076 115.845 21.082C115.575 20.7565 115.371 20.3675 115.234 19.915C115.101 19.4626 115.034 18.9613 115.034 18.4111C115.034 17.682 115.155 17.0423 115.396 16.4922C115.636 15.9421 116.001 15.514 116.489 15.208C116.981 14.902 117.596 14.749 118.335 14.749C119.041 14.749 119.635 14.9004 120.117 15.2031C120.602 15.5059 120.968 15.9323 121.216 16.4824C121.466 17.0293 121.592 17.6755 121.592 18.4209ZM115.908 18.4209C115.908 19.0264 115.994 19.5505 116.167 19.9932C116.34 20.4359 116.603 20.7777 116.958 21.0186C117.316 21.2594 117.77 21.3799 118.32 21.3799C118.874 21.3799 119.326 21.2594 119.678 21.0186C120.033 20.7777 120.295 20.4359 120.464 19.9932C120.633 19.5505 120.718 19.0264 120.718 18.4209C120.718 17.4997 120.524 16.7803 120.137 16.2627C119.753 15.7419 119.152 15.4814 118.335 15.4814C117.782 15.4814 117.326 15.6003 116.968 15.8379C116.61 16.0755 116.343 16.4141 116.167 16.8535C115.994 17.2897 115.908 17.8122 115.908 18.4209ZM125.376 22H124.541V15.5938H122.295V14.8613H127.612V15.5938H125.376V22Z" fill="#151515"/>
<path d="M125.018 39.4097H126.647V28.3981H125.018V39.4097ZM139.689 32.3646L137.822 37.1388H137.766L135.828 32.3646H134.073L136.979 39.0371L135.323 42.749H137.021L141.5 32.3646H139.689ZM130.452 38.1588C129.918 38.1588 129.174 37.8902 129.174 37.2234C129.174 36.3742 130.1 36.0483 130.901 36.0483C131.616 36.0483 131.954 36.2042 132.389 36.4165C132.262 37.4365 131.392 38.1588 130.452 38.1588ZM130.648 32.1241C129.469 32.1241 128.247 32.6482 127.742 33.8101L129.188 34.4188C129.497 33.8101 130.072 33.611 130.676 33.611C131.519 33.611 132.375 34.121 132.389 35.0283V35.1411C132.094 34.971 131.463 34.7165 130.69 34.7165C129.132 34.7165 127.545 35.5806 127.545 37.1952C127.545 38.6689 128.823 39.6184 130.255 39.6184C131.35 39.6184 131.954 39.1225 132.333 38.5411H132.389V39.3912H133.961V35.1692C133.961 33.2146 132.515 32.1241 130.648 32.1241ZM120.582 33.7053H118.265V29.9308H120.582C121.8 29.9308 122.491 30.9482 122.491 31.8176C122.491 32.6711 121.8 33.7053 120.582 33.7053ZM120.54 28.3981H116.638V39.4097H118.265V35.2379H120.54C122.345 35.2379 124.12 33.9184 124.12 31.8176C124.12 29.7168 122.345 28.3981 120.54 28.3981ZM99.2583 38.1606C98.1332 38.1606 97.1913 37.2102 97.1913 35.9047C97.1913 34.5852 98.1332 33.6198 99.2583 33.6198C100.369 33.6198 101.241 34.5852 101.241 35.9047C101.241 37.2102 100.369 38.1606 99.2583 38.1606ZM101.129 32.9812H101.072C100.706 32.5417 100.004 32.1444 99.1178 32.1444C97.2611 32.1444 95.5599 33.7898 95.5599 35.9047C95.5599 38.0047 97.2611 39.6369 99.1178 39.6369C100.004 39.6369 100.706 39.2396 101.072 38.7851H101.129V39.3251C101.129 40.7582 100.369 41.5246 99.1457 41.5246C98.1471 41.5246 97.5282 40.8005 97.2751 40.1901L95.8549 40.7864C96.2626 41.78 97.3458 43 99.1457 43C101.058 43 102.676 41.8646 102.676 39.0978V32.3708H101.129V32.9812ZM103.801 39.4097H105.432V28.3973H103.801V39.4097ZM107.836 35.777C107.794 34.3298 108.947 33.5916 109.777 33.5916C110.424 33.5916 110.972 33.9176 111.155 34.3862L107.836 35.777ZM112.899 34.528C112.59 33.6912 111.647 32.1444 109.721 32.1444C107.808 32.1444 106.22 33.6621 106.22 35.8907C106.22 37.9906 107.794 39.6369 109.903 39.6369C111.605 39.6369 112.59 38.5869 112.998 37.9765L111.732 37.1247C111.31 37.7493 110.733 38.1606 109.903 38.1606C109.074 38.1606 108.483 37.7774 108.103 37.0261L113.067 34.9534L112.899 34.528ZM73.3501 33.2939V34.883H77.1184C77.0058 35.777 76.7107 36.4297 76.2612 36.8834C75.7121 37.4374 74.8541 38.0479 73.3501 38.0479C71.0291 38.0479 69.2152 36.1602 69.2152 33.8189C69.2152 31.4767 71.0291 29.5899 73.3501 29.5899C74.6018 29.5899 75.5157 30.0867 76.1905 30.7254L77.3017 29.604C76.3589 28.6959 75.1081 28 73.3501 28C70.1719 28 67.5 30.6117 67.5 33.8189C67.5 37.0261 70.1719 39.6369 73.3501 39.6369C75.0653 39.6369 76.3589 39.0688 77.3715 38.0047C78.4129 36.9547 78.7358 35.4793 78.7358 34.2866C78.7358 33.9176 78.7079 33.5775 78.6512 33.2939H73.3501ZM83.0208 38.1606C81.8957 38.1606 80.925 37.2243 80.925 35.8907C80.925 34.5421 81.8957 33.6198 83.0208 33.6198C84.1451 33.6198 85.1158 34.5421 85.1158 35.8907C85.1158 37.2243 84.1451 38.1606 83.0208 38.1606ZM83.0208 32.1444C80.9669 32.1444 79.2936 33.7194 79.2936 35.8907C79.2936 38.0479 80.9669 39.6369 83.0208 39.6369C85.0739 39.6369 86.7472 38.0479 86.7472 35.8907C86.7472 33.7194 85.0739 32.1444 83.0208 32.1444ZM91.15 38.1606C90.0249 38.1606 89.0542 37.2243 89.0542 35.8907C89.0542 34.5421 90.0249 33.6198 91.15 33.6198C92.2752 33.6198 93.245 34.5421 93.245 35.8907C93.245 37.2243 92.2752 38.1606 91.15 38.1606ZM91.15 32.1444C89.097 32.1444 87.4237 33.7194 87.4237 35.8907C87.4237 38.0479 89.097 39.6369 91.15 39.6369C93.2031 39.6369 94.8764 38.0479 94.8764 35.8907C94.8764 33.7194 93.2031 32.1444 91.15 32.1444Z" fill="#151515"/>
</svg>
