<svg width="1144" height="1213" viewBox="0 0 1144 1213" fill="none" xmlns="http://www.w3.org/2000/svg">
<path d="M702.504 1212.79C690.694 1212.79 679.253 1209.21 669.415 1202.43L438.329 1043.14H263.926C203.903 1043.14 146.025 1021.31 100.954 981.681C55.8353 942.009 26.8363 887.375 19.2983 827.843C-6.43275 624.614 -6.43275 418.522 19.2983 215.292C26.8363 155.76 55.8353 101.127 100.954 61.454C146.025 21.825 203.903 0 263.926 0H879.086C939.11 0 996.988 21.824 1042.06 61.454C1087.18 101.126 1116.18 155.76 1123.71 215.292C1149.45 418.522 1149.45 624.614 1123.71 827.844C1116.18 887.376 1087.18 942.009 1042.06 981.681C996.987 1021.31 939.109 1043.14 879.086 1043.14H761.024V1154.31C761.024 1186.56 734.772 1212.79 702.504 1212.79Z" fill="white"/>
<path d="M496.391 770.764H544.81L520.753 711.122L496.391 770.764Z" fill="#293896"/>
<path d="M843.504 614.678H684.32C648.823 614.678 615.852 596.304 597.18 566.114L443.7 317.975V552.527C443.7 586.852 415.874 614.678 381.548 614.678H299.509V201.772H458.692C494.191 201.772 527.161 220.146 545.834 250.336L699.312 498.475V263.923C699.312 229.598 727.138 201.772 761.463 201.772H843.504V614.678ZM843.504 827.523H807.231V676.684H843.504V827.523ZM775.508 827.523H734.197L696.819 772.889L658.654 827.523H616.904L673.711 751.406L621.021 676.684H662.39L697.232 729.924L734.185 676.684H775.926L720.114 751.341L775.508 827.523ZM566.143 827.523L553.766 796.022H487.229L474.346 827.523H437.116L504.67 676.684H537.292L603.383 827.523H566.143ZM388.574 827.523H352.302V704.902H299.509V676.684H441.116V704.902H388.574V827.523ZM1089.97 219.564C1076.53 113.455 986.041 34.0149 879.087 34.0149H263.926C156.972 34.0149 66.4795 113.457 53.0445 219.564C27.6545 420.097 27.6545 623.039 53.0445 823.57C66.4795 929.679 156.972 1009.12 263.926 1009.12H448.918L688.721 1174.42C704.924 1185.59 727.008 1173.99 727.008 1154.31V1009.12H879.087C986.041 1009.12 1076.53 929.679 1089.97 823.572C1115.36 623.039 1115.36 420.097 1089.97 219.564Z" fill="#293896"/>
</svg>
