<svg width="122" height="33" viewBox="0 0 122 33" fill="none" xmlns="http://www.w3.org/2000/svg">
<path d="M42.7797 19.1058C43.124 19.6706 43.5976 20.1124 44.2009 20.431C44.8036 20.7502 45.4745 20.9096 46.2128 20.9096C46.9512 20.9096 47.6156 20.7502 48.2062 20.431C48.7968 20.1124 49.2641 19.6706 49.609 19.1058C49.9534 18.5415 50.1259 17.8668 50.1259 17.0811C50.1259 16.296 49.9534 15.6086 49.609 15.0196C49.2641 14.4306 48.7968 13.9768 48.2062 13.6575C47.6156 13.3389 46.9512 13.1789 46.2128 13.1789C45.4745 13.1789 44.8036 13.3389 44.2009 13.6575C43.5976 13.9768 43.124 14.4306 42.7797 15.0196C42.4348 15.6086 42.2628 16.296 42.2628 17.0811C42.2628 17.8668 42.4348 18.5415 42.7797 19.1058ZM54.7403 0.66268L46.2866 9.57131L44.6993 10.3444C45.4618 9.65756 46.1511 9.20955 46.7665 9.00067C47.3814 8.79252 48.1693 8.6878 49.1291 8.6878C50.0641 8.6878 51.0118 8.87182 51.9716 9.23996C52.9315 9.6081 53.8047 10.1545 54.5927 10.8781C55.38 11.6023 56.0139 12.4795 56.4938 13.5103C56.9738 14.541 57.2137 15.7317 57.2137 17.0811C57.2137 19.2898 56.7153 21.1248 55.7185 22.5846C54.7219 24.045 53.3865 25.1373 51.7133 25.8609C50.0394 26.5845 48.2062 26.9469 46.2128 26.9469C44.1946 26.9469 42.3551 26.5845 40.6939 25.8609C39.0327 25.1373 37.6974 24.045 36.6886 22.5846C35.6792 21.1248 35.175 19.2898 35.175 17.0811C35.175 15.5844 35.5073 14.2097 36.1717 12.958C36.8363 11.7065 37.6357 10.5043 38.5713 9.35041L45.659 0.66268H54.7403Z" fill="#2E3192"/>
<path d="M59.5759 2.57688L73.0501 0V26.2843H66.1839V7.10481L59.5759 8.65094V2.57688Z" fill="#2E3192"/>
<path d="M83.4785 16.4554C83.6874 17.3636 83.9769 18.1366 84.3461 18.7746C84.7153 19.4131 85.1582 19.8974 85.6751 20.2286C86.1919 20.56 86.7578 20.7256 87.3732 20.7256C88.0129 20.7256 88.5851 20.56 89.0898 20.2286C89.5939 19.8974 90.0369 19.4131 90.4187 18.7746C90.8 18.1366 91.0953 17.3636 91.3047 16.4554C91.5135 15.5477 91.6185 14.5291 91.6185 13.3999C91.6185 12.2714 91.5135 11.2527 91.3047 10.3444C91.0953 9.43682 90.8 8.66375 90.4187 8.02526C90.0369 7.38741 89.5939 6.90245 89.0898 6.57118C88.5851 6.23983 88.0129 6.0742 87.3732 6.0742C86.7578 6.0742 86.1919 6.23983 85.6751 6.57118C85.1582 6.90245 84.7153 7.38741 84.3461 8.02526C83.9769 8.66375 83.6874 9.43682 83.4785 10.3444C83.2692 11.2527 83.1648 12.2714 83.1648 13.3999C83.1648 14.5291 83.2692 15.5477 83.4785 16.4554ZM77.7012 6.11099C78.6363 4.12315 79.9346 2.60808 81.5959 1.56466C83.2571 0.521808 85.1825 0.000137329 87.3732 0.000137329C89.662 0.000137329 91.637 0.521808 93.2981 1.56466C94.9594 2.60808 96.2387 4.12315 97.1373 6.11099C98.0355 8.09892 98.4848 10.5286 98.4848 13.3999C98.4848 16.2714 98.0355 18.7009 97.1373 20.6888C96.2387 22.6768 94.9594 24.1924 93.2981 25.2352C91.637 26.2786 89.662 26.7998 87.3732 26.7998C85.1825 26.7998 83.2571 26.2786 81.5959 25.2352C79.9346 24.1924 78.6363 22.6768 77.7012 20.6888C76.7657 18.7009 76.2985 16.2714 76.2985 13.3999C76.2985 10.5286 76.7657 8.09892 77.7012 6.11099Z" fill="#2E3192"/>
<path d="M107.566 19.1058C107.91 19.6706 108.384 20.1124 108.987 20.431C109.59 20.7502 110.261 20.9096 110.999 20.9096C111.737 20.9096 112.402 20.7502 112.993 20.431C113.583 20.1124 114.05 19.6706 114.395 19.1058C114.74 18.5415 114.912 17.8668 114.912 17.0811C114.912 16.296 114.74 15.6086 114.395 15.0196C114.05 14.4306 113.583 13.9768 112.993 13.6575C112.402 13.3389 111.737 13.1789 110.999 13.1789C110.261 13.1789 109.59 13.3389 108.987 13.6575C108.384 13.9768 107.91 14.4306 107.566 15.0196C107.221 15.6086 107.049 16.296 107.049 17.0811C107.049 17.8668 107.221 18.5415 107.566 19.1058ZM119.527 0.66268L111.073 9.57131L109.486 10.3444C110.248 9.65756 110.937 9.20955 111.553 9.00067C112.168 8.79252 112.956 8.6878 113.915 8.6878C114.85 8.6878 115.798 8.87182 116.758 9.23996C117.718 9.6081 118.591 10.1545 119.379 10.8781C120.166 11.6023 120.8 12.4795 121.28 13.5103C121.76 14.541 122 15.7317 122 17.0811C122 19.2898 121.502 21.1248 120.505 22.5846C119.508 24.045 118.173 25.1373 116.5 25.8609C114.826 26.5845 112.993 26.9469 110.999 26.9469C108.981 26.9469 107.141 26.5845 105.48 25.8609C103.819 25.1373 102.484 24.045 101.475 22.5846C100.466 21.1248 99.9614 19.2898 99.9614 17.0811C99.9614 15.5844 100.294 14.2097 100.958 12.958C101.623 11.7065 102.422 10.5043 103.358 9.35041L110.445 0.66268H119.527Z" fill="#2E3192"/>
<path d="M29.616 5.20122C29.2392 2.22684 26.7012 0 23.7015 0H6.44855C3.44887 0 0.910863 2.22688 0.534073 5.20122C-0.178024 10.8225 -0.178024 16.5113 0.534073 22.1325C0.910863 25.1069 3.44887 27.3337 6.44855 27.3337H11.6369L18.3624 31.9674C18.8169 32.2805 19.4363 31.9553 19.4363 31.4036V27.3337H23.7015C26.7012 27.3337 29.2392 25.1069 29.616 22.1325C30.3281 16.5113 30.3281 10.8225 29.616 5.20122Z" fill="#2E3192"/>
<path d="M7.58167 4.76063H12.0187C13.0082 4.76063 13.9272 5.27846 14.4477 6.12933L18.7256 13.1226V6.51223C18.7256 5.54484 19.5013 4.76063 20.4581 4.76063H22.7448V16.3975H18.3078C17.3183 16.3975 16.3993 15.8796 15.8789 15.0288L11.6008 8.03558V14.6459C11.6008 15.6133 10.8252 16.3975 9.8684 16.3975H7.58167V4.76063Z" fill="white"/>
<path d="M9.02779 22.2157V18.7758H7.58167V17.9842H11.4606V18.7758H10.0214V22.2157H9.02779Z" fill="white"/>
<path d="M13.0949 20.6234H14.4299L13.7666 18.9502L13.0949 20.6234ZM15.0181 22.2157L14.6768 21.332H12.8423L12.4871 22.2157H11.4606L13.3232 17.9842H14.2226L16.0448 22.2157H15.0181Z" fill="white"/>
<path d="M19.6487 22.2157L18.6126 20.683L17.5547 22.2157H16.3975L17.9721 20.0804L16.5116 17.9842H17.6583L18.6241 19.4777L19.6484 17.9842H20.8054L19.2583 20.0786L20.7938 22.2157H19.6487Z" fill="white"/>
<path d="M21.6869 17.9842H22.7448V22.2157H21.6869V17.9842Z" fill="white"/>
</svg>
